<?xml version="1.0" standalone="no"?>
<!DOCTYPE svg PUBLIC "-//W3C//DTD SVG 20010904//EN"
 "http://www.w3.org/TR/2001/REC-SVG-20010904/DTD/svg10.dtd">
<svg version="1.0" xmlns="http://www.w3.org/2000/svg"
 width="280.000000pt" height="360.000000pt" viewBox="0 0 280.000000 360.000000"
 preserveAspectRatio="xMidYMid meet">

<g transform="translate(0.000000,360.000000) scale(0.100000,-0.100000)"
fill="#000000" stroke="none">
<path d="M1789 2583 c-56 -47 -143 -143 -162 -179 -23 -44 -31 -112 -19 -145
7 -16 21 -29 38 -33 16 -4 58 -29 94 -54 81 -58 113 -75 134 -70 20 4 23 21 5
27 -7 2 -9 -1 -5 -8 4 -6 1 -11 -8 -11 -13 0 -12 5 4 33 39 67 49 155 14 126
-17 -14 -19 -33 -1 -23 7 4 9 3 4 -2 -5 -5 -12 -9 -17 -9 -12 0 -70 -54 -70
-65 0 -6 -7 -10 -15 -10 -8 0 -15 5 -15 10 0 6 -8 14 -18 18 -15 6 -17 12 -10
40 5 17 14 32 20 32 6 0 20 7 30 16 18 17 19 17 30 -25 6 -23 38 76 49 149 11
75 4 155 -17 188 -18 28 -25 28 -65 -5z m-73 -228 c-23 -17 -36 -19 -36 -6 0
5 8 12 18 14 32 9 37 6 18 -8z m-1 -65 c-28 -12 -57 -12 -50 0 3 6 21 10 38 9
27 0 29 -2 12 -9z m165 -93 c0 -2 -10 -12 -22 -23 l-23 -19 19 23 c18 21 26
27 26 19z"/>
<path d="M931 2581 c-18 -33 -41 -133 -41 -179 0 -54 25 -110 56 -124 13 -6
25 -18 27 -27 3 -10 5 -8 6 7 1 27 12 28 34 4 19 -21 21 -51 7 -102 l-9 -35
29 35 c17 19 30 31 30 26 0 -4 13 2 29 13 16 12 34 21 41 21 18 0 1 20 -26 31
-30 11 -59 70 -41 81 7 4 7 8 2 8 -17 0 -37 40 -42 84 -6 55 -56 170 -76 174
-8 2 -20 -6 -26 -17z m149 -352 c13 -23 8 -31 -20 -36 -16 -2 -20 3 -20 27 0
36 24 41 40 9z"/>
<path d="M1567 1985 c-19 -20 -40 -49 -47 -65 -7 -16 -20 -32 -30 -35 -18 -6
-18 -7 2 -40 11 -19 21 -35 23 -35 2 0 32 17 67 37 51 30 73 37 116 37 38 0
57 -5 70 -18 10 -11 11 -15 3 -11 -9 5 -12 4 -7 -3 3 -6 14 -11 24 -11 30 1
116 -33 141 -55 21 -19 23 -27 18 -86 l-5 -65 39 3 c49 5 49 13 4 121 -19 46
-32 88 -29 93 3 5 2 8 -3 7 -4 -1 -24 2 -43 6 -29 7 -31 9 -15 16 13 5 -1 8
-40 8 -54 1 -62 4 -87 34 -24 27 -34 57 -30 88 1 4 -8 5 -18 2 -13 -3 -20 -14
-20 -28 0 -20 -6 -24 -47 -27 -57 -5 -69 2 -53 32 19 36 4 34 -33 -5z"/>
<path d="M1061 1919 c-7 -16 -23 -35 -35 -40 -11 -5 -32 -16 -46 -24 -14 -8
-39 -15 -57 -15 -34 0 -63 -22 -63 -47 0 -12 7 -14 38 -8 69 14 82 14 82 -1 0
-8 -9 -22 -20 -31 -11 -10 -20 -23 -20 -30 0 -7 -3 -13 -8 -13 -4 0 -25 -14
-46 -32 -32 -26 -35 -33 -22 -40 9 -5 21 -6 28 -2 7 5 9 -1 6 -20 -6 -32 8
-35 18 -3 8 29 33 56 65 72 22 12 33 12 72 0 25 -7 58 -22 74 -31 l28 -18 -21
21 c-31 31 -82 55 -112 53 -52 -4 -52 -4 -36 53 11 37 30 66 65 102 43 44 48
53 37 68 -12 16 -14 14 -27 -14z"/>
<path d="M1157 1921 c-17 -6 -16 -8 6 -29 20 -19 127 -57 127 -45 0 2 -7 17
-15 34 -22 42 -72 59 -118 40z m57 -7 c25 -10 19 -34 -8 -34 -27 0 -41 14 -31
30 7 12 17 12 39 4z"/>
<path d="M1338 1915 c-7 -9 -19 -22 -25 -30 -14 -14 -17 -35 -7 -35 4 0 26 18
50 40 41 37 42 40 19 40 -13 0 -30 -7 -37 -15z"/>
<path d="M1650 1766 l-65 -12 -14 -63 c-11 -47 -12 -67 -4 -81 19 -29 -6 -90
-37 -90 -6 0 -9 -4 -6 -9 4 -5 1 -22 -6 -38 -6 -15 -11 -31 -10 -35 1 -5 -31
-9 -71 -9 -118 -3 -125 -4 -121 -11 3 -4 19 -12 37 -17 23 -7 26 -9 11 -10
-37 -2 -142 92 -136 121 1 4 -16 17 -37 28 l-39 19 -26 -20 c-26 -20 -39 -51
-13 -32 23 18 57 13 57 -8 0 -11 4 -18 9 -15 5 4 24 -13 42 -36 19 -24 36 -45
39 -48 33 -28 56 -120 30 -120 -6 0 -8 -11 -4 -25 5 -22 3 -25 -22 -25 -28 -1
-28 -1 -10 -15 16 -12 22 -12 29 -2 6 8 7 7 3 -5 -6 -20 2 -48 14 -48 4 0 16
20 27 45 10 25 21 45 26 45 4 0 7 7 7 15 0 26 14 16 42 -30 23 -38 26 -52 21
-95 -3 -27 -2 -50 2 -50 4 0 23 16 42 35 45 46 217 185 230 185 11 0 43 42 67
88 9 17 22 32 29 32 32 0 159 181 137 195 -6 3 -10 -1 -10 -9 0 -30 -18 -16
-24 19 -4 19 -21 58 -38 85 -28 45 -35 50 -67 50 -20 0 -45 2 -56 4 -11 2 -49
-2 -85 -8z m214 -89 c30 -22 28 -113 -4 -155 -30 -40 -43 -37 -50 15 -6 43
-34 93 -51 93 -6 0 -9 7 -5 15 3 8 0 15 -7 16 -18 1 55 27 79 28 11 1 28 -5
38 -12z m-118 -65 c40 -26 47 -137 12 -202 -22 -41 -23 -41 -39 -21 -9 11 -19
45 -23 76 -3 32 -11 66 -16 76 -8 15 -7 17 5 13 17 -7 22 31 5 41 -5 3 -10 10
-10 16 0 11 50 12 66 1z m-313 -229 c-7 -2 -21 -2 -30 0 -10 3 -4 5 12 5 17 0
24 -2 18 -5z"/>
<path d="M1050 1612 c-42 -20 -75 -80 -66 -118 4 -14 11 -22 16 -19 6 4 10 -9
10 -29 0 -20 4 -36 9 -36 18 0 41 32 41 56 0 43 34 94 58 86 7 -2 12 5 12 16
0 15 -9 22 -31 27 -28 6 -29 8 -12 21 25 18 5 17 -37 -4z"/>
<path d="M1347 1586 c-4 -10 2 -16 16 -19 13 -3 7 -5 -15 -6 -42 -1 -42 -1
-27 -33 11 -25 89 -84 89 -68 0 5 15 12 34 15 28 6 36 14 50 48 15 37 15 42
-1 59 -21 23 -138 26 -146 4z"/>
<path d="M943 1495 c0 -8 4 -15 9 -15 4 0 8 4 8 9 0 6 -4 12 -8 15 -5 3 -9 -1
-9 -9z"/>
</g>
</svg>
